<svg width="40" height="40" viewBox="0 0 40 40" fill="none" xmlns="http://www.w3.org/2000/svg">
<path d="M13.3333 12.625H8.33333C7.44928 12.625 6.60143 13.0201 5.97631 13.7233C5.35119 14.4266 5 15.3804 5 16.375V33.25C5 34.2446 5.35119 35.1984 5.97631 35.9016C6.60143 36.6049 7.44928 37 8.33333 37H31.6667C32.5507 37 33.3986 36.6049 34.0237 35.9016C34.6488 35.1984 35 34.2446 35 33.25V16.375C35 15.3804 34.6488 14.4266 34.0237 13.7233C33.3986 13.0201 32.5507 12.625 31.6667 12.625H26.6667M25 20.125L20 25.75M20 25.75L15 20.125M20 25.75V7" stroke="black" stroke-width="2" stroke-linecap="round" stroke-linejoin="round"/>
</svg>
