<svg width="23" height="23" viewBox="0 0 23 23" fill="none" xmlns="http://www.w3.org/2000/svg">
<path fill-rule="evenodd" clip-rule="evenodd" d="M12.1742 1.49111C12.0987 1.32751 11.9779 1.18895 11.8262 1.09184C11.6744 0.994725 11.498 0.943115 11.3178 0.943115C11.1376 0.943115 10.9612 0.994725 10.8095 1.09184C10.6577 1.18895 10.5369 1.32751 10.4614 1.49111L7.75464 7.35742L1.34036 8.11853C1.1614 8.13966 0.992238 8.21162 0.852897 8.32589C0.713556 8.44016 0.609868 8.59195 0.554105 8.76331C0.498341 8.93467 0.492837 9.11842 0.538243 9.2928C0.583649 9.46719 0.678064 9.62492 0.810315 9.74733L5.5543 14.1329L4.29521 20.4708C4.26024 20.6475 4.27658 20.8305 4.34231 20.9981C4.40804 21.1658 4.52041 21.3112 4.66613 21.417C4.81185 21.5229 4.98483 21.5848 5.16461 21.5954C5.3444 21.6061 5.52348 21.565 5.68068 21.4771L11.3178 18.3214L16.9549 21.4771C17.1122 21.5654 17.2915 21.6067 17.4716 21.5962C17.6517 21.5856 17.8249 21.5237 17.9708 21.4177C18.1168 21.3116 18.2292 21.166 18.2949 20.998C18.3606 20.83 18.3767 20.6467 18.3414 20.4699L17.0823 14.1339L21.8253 9.74733C21.9576 9.62492 22.052 9.46719 22.0974 9.2928C22.1428 9.11842 22.1373 8.93467 22.0815 8.76331C22.0257 8.59195 21.9221 8.44016 21.7827 8.32589C21.6434 8.21162 21.4742 8.13966 21.2953 8.11853L14.88 7.35648L12.1742 1.49111Z" fill="#F0D431"/>
</svg>
