<svg width="36" height="36" viewBox="0 0 36 36" fill="none" xmlns="http://www.w3.org/2000/svg">
<path d="M33.1875 11.8125H2.8125C2.36495 11.8125 1.93572 11.6347 1.61926 11.3182C1.30279 11.0018 1.125 10.5726 1.125 10.125C1.125 9.67745 1.30279 9.24822 1.61926 8.93176C1.93572 8.61529 2.36495 8.4375 2.8125 8.4375H33.1875C33.6351 8.4375 34.0643 8.61529 34.3807 8.93176C34.6972 9.24822 34.875 9.67745 34.875 10.125C34.875 10.5726 34.6972 11.0018 34.3807 11.3182C34.0643 11.6347 33.6351 11.8125 33.1875 11.8125ZM27.5625 19.6875H8.4375C7.98995 19.6875 7.56072 19.5097 7.24426 19.1932C6.92779 18.8768 6.75 18.4476 6.75 18C6.75 17.5524 6.92779 17.1232 7.24426 16.8068C7.56072 16.4903 7.98995 16.3125 8.4375 16.3125H27.5625C28.0101 16.3125 28.4393 16.4903 28.7557 16.8068C29.0722 17.1232 29.25 17.5524 29.25 18C29.25 18.4476 29.0722 18.8768 28.7557 19.1932C28.4393 19.5097 28.0101 19.6875 27.5625 19.6875ZM20.8125 27.5625H15.1875C14.7399 27.5625 14.3107 27.3847 13.9943 27.0682C13.6778 26.7518 13.5 26.3226 13.5 25.875C13.5 25.4274 13.6778 24.9982 13.9943 24.6818C14.3107 24.3653 14.7399 24.1875 15.1875 24.1875H20.8125C21.2601 24.1875 21.6893 24.3653 22.0057 24.6818C22.3222 24.9982 22.5 25.4274 22.5 25.875C22.5 26.3226 22.3222 26.7518 22.0057 27.0682C21.6893 27.3847 21.2601 27.5625 20.8125 27.5625Z" fill="#D07E60" fill-opacity="0.99"/>
</svg>
