<svg width="28" height="40" viewBox="0 0 40 40" fill="none" xmlns="http://www.w3.org/2000/svg">
<path d="M15 5.83333V34.1667M5 15.6667C5 11.9333 5 10.0667 5.72667 8.64C6.36581 7.38564 7.38564 6.36581 8.64 5.72667C10.0667 5 11.9333 5 15.6667 5H24.3333C28.0667 5 29.9333 5 31.36 5.72667C32.6144 6.36581 33.6342 7.38564 34.2733 8.64C35 10.0667 35 11.9333 35 15.6667V24.3333C35 28.0667 35 29.9333 34.2733 31.36C33.6342 32.6144 32.6144 33.6342 31.36 34.2733C29.9333 35 28.0667 35 24.3333 35H15.6667C11.9333 35 10.0667 35 8.64 34.2733C7.38564 33.6342 6.36581 32.6144 5.72667 31.36C5 29.9333 5 28.0667 5 24.3333V15.6667Z" stroke="black" stroke-width="1.5" stroke-linecap="round" stroke-linejoin="round"/>
</svg>
