<svg width="32" height="32" viewBox="0 0 32 32" fill="none" xmlns="http://www.w3.org/2000/svg">
<g clip-path="url(#clip0_161_584)">
<path d="M22 14C22 17.32 19.32 20 16 20C12.68 20 10 17.32 10 14C10 10.68 12.68 8 16 8C19.32 8 22 10.68 22 14Z" fill="black"/>
<path fill-rule="evenodd" clip-rule="evenodd" d="M32 16C32 24.84 24.84 32 16 32C7.16 32 0 24.84 0 16C0 7.16 7.16 0 16 0C24.84 0 32 7.16 32 16ZM8 27.5C8.32 26.968 11.42 22 15.98 22C20.52 22 23.64 26.98 23.96 27.5C25.8197 26.214 27.3393 24.4955 28.3879 22.4922C29.4365 20.489 29.9829 18.2611 29.98 16C29.98 8.26 23.72 2 15.98 2C8.24 2 1.98 8.26 1.98 16C1.98 20.76 4.36 24.98 8 27.5Z" fill="black"/>
</g>
<defs>
<clipPath id="clip0_161_584">
<rect width="32" height="32" fill="white"/>
</clipPath>
</defs>
</svg>
